<svg width="10" height="18" viewBox="0 0 10 18" fill="none" xmlns="http://www.w3.org/2000/svg">
<path d="M1.48872 3.47744C2.32331 3.47744 3 2.82331 3 1.98872C3 1.17669 2.32331 0.5 1.48872 0.5C0.676692 0.5 0 1.17669 0 1.98872C0 2.82331 0.676692 3.47744 1.48872 3.47744Z" fill="#6624FF"/>
<path d="M8.48872 3.5C9.32331 3.5 10 2.84091 10 2C10 1.18182 9.32331 0.5 8.48872 0.5C7.67669 0.5 7 1.18182 7 2C7 2.84091 7.67669 3.5 8.48872 3.5Z" fill="#6624FF"/>
<path d="M1.48872 10.5C2.32331 10.5 3 9.84091 3 9C3 8.18182 2.32331 7.5 1.48872 7.5C0.676692 7.5 0 8.18182 0 9C0 9.84091 0.676692 10.5 1.48872 10.5Z" fill="#6624FF"/>
<path d="M8.48872 10.5C9.32331 10.5 10 9.84091 10 9C10 8.18182 9.32331 7.5 8.48872 7.5C7.67669 7.5 7 8.18182 7 9C7 9.84091 7.67669 10.5 8.48872 10.5Z" fill="#6624FF"/>
<path d="M1.48872 17.5C2.32331 17.5 3 16.8409 3 16C3 15.1818 2.32331 14.5 1.48872 14.5C0.676692 14.5 0 15.1818 0 16C0 16.8409 0.676692 17.5 1.48872 17.5Z" fill="#6624FF"/>
<path d="M8.48872 17.5C9.32331 17.5 10 16.8409 10 16C10 15.1818 9.32331 14.5 8.48872 14.5C7.67669 14.5 7 15.1818 7 16C7 16.8409 7.67669 17.5 8.48872 17.5Z" fill="#6624FF"/>
</svg>
